<svg width="605" height="414" viewBox="0 0 605 414" fill="none" xmlns="http://www.w3.org/2000/svg">
<g id="creative" clip-path="url(#clip0_1_3)">
<rect width="605" height="414" fill="url(#paint0_linear_1_3)"/>
<path id="Vector" d="M131.145 276.394C130.037 285.242 124.492 293.229 117.359 298.443C115.66 299.689 113.866 300.777 111.998 301.696C109.944 302.702 107.826 303.544 105.659 304.218C100.404 305.796 95.0039 306.74 89.5576 307.03H89.5485C84.9994 307.351 80.4227 307.391 75.8922 307.421L53.5808 307.571C50.9142 307.591 48.2568 307.611 45.5901 307.631C37.627 307.681 29.4056 307.681 22.0515 304.368C21.9415 304.324 21.8337 304.274 21.7285 304.218C14.5036 300.835 8.34908 293.399 8.52434 284.892C8.59485 281.895 9.37664 278.968 10.7942 276.394C11.7326 274.665 12.8603 273.066 14.1529 271.63C18.1575 267.126 23.7123 263.593 28.9164 260.751C34.7757 257.558 41.1609 253.715 45.4147 248.541C45.9314 247.91 46.4112 247.27 46.8541 246.609C48.1368 244.741 49.1023 242.639 49.7054 240.404C49.9703 239.393 50.1494 238.357 50.2405 237.311C50.8311 230.705 47.8691 224.63 44.0952 219.196C43.7261 218.655 43.3386 218.115 42.9418 217.574C42.0928 216.423 41.2163 215.292 40.349 214.211C39.9799 213.751 39.6108 213.281 39.2325 212.81C38.199 211.509 37.1563 210.178 36.1598 208.817C35.6984 208.176 35.2463 207.536 34.8034 206.885C32.9896 204.323 31.5058 201.505 30.3928 198.508C29.6023 196.316 29.1623 193.994 29.0918 191.642C28.8888 183.145 37.6454 174.588 44.2705 178.601C46.7803 178.341 49.2994 178.071 51.8092 177.79C52.3997 177.73 52.981 177.66 53.5715 177.6C53.7192 177.58 53.8668 177.57 54.0145 177.55C58.0006 177.12 61.9683 176.689 65.9453 176.249H65.9545C66.8495 176.169 67.7261 176.069 68.6027 175.969H68.6119C74.9879 175.278 81.3578 174.588 87.7215 173.897C88.312 173.837 88.9025 173.767 89.4931 173.707C90.8033 173.557 92.1044 173.417 93.4146 173.277C97.0871 172.886 101.405 172.736 103.795 175.799C106.397 179.142 105.05 184.426 102.476 187.799C99.9014 191.162 96.3304 193.544 93.9129 197.027C91.9594 199.896 90.8238 203.323 90.6465 206.885C90.6096 207.516 90.5911 208.166 90.6096 208.817C90.623 210.156 90.7372 211.491 90.951 212.81C91.2102 214.432 91.5992 216.026 92.1136 217.574C93.017 220.34 94.2683 222.957 95.8322 225.351C101.258 233.598 109.295 239.283 116.427 245.818C116.713 246.078 116.99 246.339 117.267 246.609C117.941 247.229 118.596 247.88 119.251 248.541C125.248 254.616 130.379 262.012 131.228 270.739C131.255 271.03 131.283 271.33 131.292 271.63C131.396 273.219 131.346 274.816 131.145 276.394Z" fill="#8C4E21"/>
<path id="Vector_2" d="M71.3728 126.05C72.9137 124.008 74.4454 121.946 75.9864 119.894C74.127 114.884 71.5214 110.238 68.2736 106.144C67.8726 105.654 67.3498 105.301 66.7679 105.126C66.1861 104.952 65.5701 104.963 64.9942 105.159C64.4182 105.355 63.9067 105.728 63.5214 106.232C63.1361 106.736 62.8933 107.35 62.8222 108C61.4758 118.771 54.1649 129.084 52.8907 140.312C52.528 143.519 52.681 146.77 53.3428 149.92V149.924C45.5889 131.616 42.5577 111.37 44.5721 91.3413C46.7851 70.1998 54.458 50.1661 66.7071 33.5469C71.697 30.5928 75.7313 26.0494 78.2655 20.53C78.6091 19.7691 78.9242 18.9861 79.2008 18.1872C79.3483 17.7518 79.3971 17.2843 79.3431 16.8242C79.2892 16.3641 79.134 15.9247 78.8908 15.5432C78.6476 15.1617 78.3233 14.8492 77.9454 14.6321C77.5676 14.4149 77.1471 14.2994 76.7195 14.2954C74.9322 14.3111 73.146 14.1972 71.3728 13.9544C72.3197 12.6996 74.6327 9.61547 76.3736 7.29184C76.7135 6.84925 76.9621 6.33286 77.1027 5.7774C77.2433 5.22194 77.2727 4.64026 77.1889 4.07147C77.105 3.50267 76.9099 2.95993 76.6166 2.47972C76.3233 1.99951 75.9386 1.59297 75.4885 1.28741L75.4512 1.26357C71.1974 -1.43873 65.3289 0.432856 62.2563 4.60641C59.1744 8.77995 58.5931 14.6349 59.6634 19.8494C60.716 24.2864 62.4571 28.4967 64.8122 32.3L64.8157 32.306C64.5817 32.6239 64.3378 32.9332 64.1072 33.2541C57.7527 42.1156 52.6295 51.9392 48.9009 62.4119C48.7529 62.826 48.6217 63.2468 48.4783 63.6627L48.4801 63.6366L49.0706 55.2895C51.0427 51.4772 52.1979 47.2321 52.4503 42.8692C52.7027 38.5064 52.0458 34.1379 50.5285 30.0881C48.0262 23.5408 43.3322 18.0286 39.2043 12.368C34.2556 5.58179 24.1219 8.57752 23.2498 17.1781C23.2414 17.2611 23.2332 17.3442 23.2252 17.4273C26.6864 19.5397 29.7182 22.3892 32.1387 25.8045C29.149 26.3049 26.1502 26.8153 23.1606 27.3158C23.3787 29.7094 23.7643 32.0816 24.314 34.4118C25.9582 41.1289 28.9051 47.3881 32.9577 52.7712C37.0103 58.1543 42.0753 62.5374 47.8144 65.6276C44.7116 75.1426 42.7712 85.0575 42.0428 95.1193C41.6236 101.052 41.6477 107.012 42.1149 112.94C42.1027 112.87 42.0984 112.799 42.0857 112.728C40.9045 106.134 37.6616 100.185 32.9046 95.884C25.4774 89.2662 14.827 87.0433 7.0831 81.4101C6.38783 80.9132 5.57662 80.641 4.74411 80.6252C3.9116 80.6095 3.09211 80.8509 2.3813 81.3212C1.6705 81.7916 1.09768 82.4715 0.729681 83.2817C0.36168 84.0918 0.213685 84.9988 0.302956 85.8967C0.369466 86.5184 0.446995 87.1385 0.535551 87.7571C5.36637 89.8888 9.58642 93.378 12.7616 97.8657C9.77198 98.3661 6.77313 98.8765 3.78352 99.3769C3.71893 99.3869 3.66358 99.397 3.59899 99.407C5.54047 104.435 8.26538 109.063 11.6544 113.089C15.8409 117.961 20.9009 121.855 26.524 124.531C32.1472 127.207 38.2151 128.61 44.3556 128.652C44.3596 128.652 44.3637 128.652 44.3677 128.652C46.5872 139.12 50.1354 149.204 54.9107 158.614C57.3969 163.511 60.2105 168.205 63.329 172.656L63.825 174.181C63.9357 174.07 64.0557 173.96 64.1664 173.85L64.1811 173.836C66.9394 177.681 69.9248 181.328 73.1185 184.754C74.1273 185.833 75.682 184.147 74.673 183.068C71.4983 179.664 68.5339 176.036 65.7991 172.209C71.3995 166.22 75.4585 158.747 77.5735 150.53C75.1906 150.693 72.7984 150.538 70.4501 150.07C72.3602 147.528 74.2702 144.966 76.1802 142.424C76.2228 142.376 76.2629 142.326 76.3002 142.273C77.269 140.972 78.2471 139.681 79.216 138.38C79.2252 137.88 79.2252 137.389 79.216 136.889C79.1548 133.399 78.7339 129.928 77.9611 126.54C75.755 126.647 73.5447 126.483 71.3728 126.05V126.05ZM42.5562 118.854C42.5655 118.463 42.5655 118.073 42.5562 117.673C42.555 117.562 42.5411 117.451 42.5386 117.34C42.6177 118.032 42.6945 118.723 42.7854 119.413L42.7777 119.394L42.5562 118.854Z" fill="#215128"/>
<path id="Vector_3" d="M207.799 240.697L197.113 291.695L190.285 299.808H185.359L205.662 207.083L206.666 222.836V222.847L207.799 240.697Z" fill="#3F3D56"/>
<path id="Vector_4" d="M259.226 292.815L196.537 292.385L190.973 292.345L187.005 292.315L182.382 292.285H182.345C181.675 292.286 181.032 292.574 180.555 293.086L172.749 301.553C172.576 301.737 172.435 301.954 172.334 302.193C172.285 302.261 172.245 302.335 172.214 302.414C172.045 302.839 171.975 303.304 172.01 303.766C172.046 304.227 172.186 304.673 172.417 305.062C172.649 305.452 172.965 305.774 173.338 306C173.711 306.225 174.13 306.348 174.557 306.357H255.766C256.253 306.355 256.73 306.204 257.142 305.92C257.553 305.637 257.882 305.233 258.091 304.756L258.728 303.254L260.038 300.202L261.524 296.759C261.682 296.392 261.764 295.992 261.764 295.588C261.76 294.857 261.492 294.157 261.018 293.639C260.543 293.12 259.9 292.825 259.226 292.815V292.815Z" fill="#3F3D56"/>
<path id="Vector_5" opacity="0.17" d="M258.728 303.252L258.087 304.759C257.878 305.235 257.55 305.638 257.14 305.921C256.729 306.204 256.254 306.355 255.768 306.358H174.556C174.129 306.35 173.71 306.227 173.337 306.002C172.964 305.776 172.648 305.455 172.416 305.065C172.185 304.676 172.046 304.23 172.011 303.768C171.976 303.307 172.046 302.843 172.216 302.417C172.244 302.338 172.284 302.264 172.333 302.197L258.728 303.252Z" fill="black"/>
<path id="Vector_6" opacity="0.17" d="M206.666 222.836V222.847L189.28 299.808H185.359L205.662 207.083L206.666 222.836Z" fill="black"/>
<path id="computer" d="M228.001 236.938L203.392 33.8551C203.302 33.0939 202.937 32.4028 202.377 31.9335L185.436 8.9339L183.914 7.66283C183.35 7.19968 182.641 6.99485 181.939 7.09234L179.393 7.46265C178.69 7.56087 178.053 7.9577 177.62 8.56584C177.187 9.17397 176.995 9.94359 177.086 10.7054V10.7054L202.59 221.124V221.134L204.149 234.005L206.004 249.288V249.308L208.883 273.089C208.928 273.496 209.055 273.888 209.254 274.237C209.454 274.586 209.72 274.884 210.036 275.11C210.346 275.342 210.699 275.499 211.069 275.572C211.44 275.644 211.821 275.63 212.186 275.531L213.801 275.09C214.419 274.917 214.962 274.513 215.332 273.949L216.052 272.838L216.384 272.318L227.531 238.99C227.922 238.395 228.09 237.662 228.001 236.938Z" fill="#3F3D56"/>
<path id="screen" d="M186.344 16.467L202.771 41.8996L222.296 203.038L211.711 225.816L186.344 16.467Z" fill="#6C63FF"/>
<path id="Vector_7" d="M243.963 240.377L237.918 247.588C237.638 247.844 237.296 248.007 236.933 248.058C236.57 248.109 236.201 248.046 235.869 247.876C234.867 247.491 233.975 246.828 233.282 245.953C228.963 240.635 224.113 235.852 218.822 231.693C217.953 231.028 217.259 230.127 216.811 229.081C216.629 228.745 216.537 228.36 216.545 227.97C216.553 227.58 216.661 227.2 216.856 226.872C216.917 222.927 218.966 220.483 222.947 219.606C223.646 218.817 225.223 219.117 226.636 220.313C232.451 225.234 237.916 230.623 242.984 236.435C244.229 237.863 244.65 239.557 243.963 240.377Z" fill="#6C63FF"/>
<path id="Vector_8" d="M228.427 224.854L223.339 230.924C223.164 231.133 222.74 231.026 222.393 230.684C222.046 230.342 221.908 229.895 222.083 229.685L227.171 223.616C227.347 223.406 227.77 223.513 228.117 223.855C228.464 224.198 228.603 224.645 228.427 224.854Z" fill="white"/>
<path id="Vector_9" d="M233.451 229.809L228.363 235.878C228.188 236.088 227.764 235.981 227.417 235.638C227.071 235.296 226.932 234.849 227.107 234.64L232.195 228.57C232.371 228.361 232.794 228.468 233.141 228.81C233.488 229.152 233.627 229.599 233.451 229.809Z" fill="white"/>
<path id="Vector_10" d="M238.475 234.764L233.388 240.833C233.212 241.043 232.789 240.935 232.442 240.593C232.095 240.251 231.956 239.804 232.132 239.594L237.219 233.525C237.395 233.315 237.818 233.423 238.165 233.765C238.512 234.107 238.651 234.554 238.475 234.764Z" fill="white"/>
<path id="Vector_11" d="M605 307.141C605 307.297 604.972 307.452 604.917 307.597C604.862 307.742 604.781 307.873 604.679 307.984C604.577 308.094 604.456 308.182 604.323 308.242C604.189 308.302 604.046 308.332 603.902 308.332H1.09807C0.806852 308.332 0.527558 308.206 0.321637 307.983C0.115715 307.759 3.05176e-05 307.456 3.05176e-05 307.141C3.05176e-05 306.825 0.115715 306.522 0.321637 306.298C0.527558 306.075 0.806852 305.95 1.09807 305.95H603.902C604.046 305.949 604.189 305.98 604.323 306.039C604.456 306.099 604.577 306.187 604.679 306.297C604.781 306.408 604.862 306.54 604.917 306.684C604.972 306.829 605 306.984 605 307.141V307.141Z" fill="#CCCCCC"/>
<path id="Vector_12" d="M142.489 250.546C132.324 235.179 113.138 227.238 99.6356 232.809C86.1336 238.38 83.4287 255.354 93.5941 270.721C103.759 286.088 133.682 310.26 147.184 304.689C160.686 299.118 152.654 265.913 142.489 250.546ZM142.552 297.811C140.89 300.454 136.812 300.577 133.444 298.085C130.076 295.593 128.693 291.431 130.355 288.788C132.017 286.145 136.095 286.022 139.463 288.514C142.831 291.005 144.214 295.168 142.552 297.811Z" fill="#3F3D56"/>
<path id="Vector_13" d="M131.014 265.577C129.748 266.687 128.482 267.797 127.216 268.907C125.662 270.461 123.822 271.641 121.818 272.368C119.066 273.058 116.189 272.872 113.532 271.833C109.659 270.476 106.264 267.859 103.808 264.338L106.545 265C105.093 263.177 103.913 261.119 103.046 258.901C102.404 256.842 102.762 254.753 104.495 254.19C106.478 253.544 109.67 254.995 111.335 253.952C114.213 252.149 109.481 245.432 112.104 243.36C113.633 242.153 116.691 243.347 119.241 244.532C122.412 245.842 125.417 247.583 128.185 249.713C132.714 253.506 135.221 259.486 133.372 262.946C132.74 263.971 131.941 264.863 131.014 265.577V265.577Z" fill="#6C63FF"/>
<path id="Vector_14" d="M130.081 277.1C127.867 277.429 125.305 275.583 123.169 273.88L122.625 273.108C122.18 271.63 121.993 270.075 122.073 268.523C122.124 267.803 122.398 267.124 122.851 266.596C123.304 266.068 123.909 265.723 124.567 265.617C125.866 265.431 127.599 266.038 128.457 265.224C130.115 263.648 126.269 259.305 128.028 257.83C129.015 257.003 131.112 258.064 132.016 259.486C132.754 260.812 133.095 262.354 132.991 263.899C133.021 266.168 133.05 268.437 133.079 270.706C133.173 272.046 133.048 273.393 132.71 274.686C132.524 275.315 132.179 275.875 131.715 276.302C131.25 276.729 130.684 277.006 130.081 277.1V277.1Z" fill="#2F2E41"/>
<path id="Vector_15" d="M130.636 284.661C127.567 283.678 122.887 280.248 118.901 277.219L117.715 276.099C116.472 274.571 115.419 272.872 114.582 271.047C114.122 269.681 114.714 268.883 116.752 269.543C118.555 270.127 121.396 271.787 122.236 271.46C123.86 270.827 116.036 264.058 117.858 263.59C118.88 263.327 122.483 265.671 124.526 267.676C126.031 269.123 127.274 270.862 128.191 272.803C129.385 275.157 130.579 277.512 131.773 279.866C132.494 281.042 132.997 282.359 133.253 283.744C133.277 284.746 132.498 285.258 130.636 284.661Z" fill="#FF6584"/>
<path id="Vector_16" d="M86.5897 293.68L143.559 301.897C143.87 301.942 144.152 302.114 144.349 302.378C144.546 302.643 144.642 302.979 144.617 303.318C144.593 303.657 144.449 303.972 144.216 304.199C143.983 304.427 143.678 304.548 143.365 304.539L87.8009 302.947L86.5897 293.68Z" fill="#3F3D56"/>
<path id="Vector_17" d="M70.2569 300.783C71.4939 298.811 72.9412 297.005 74.5688 295.402C75.3996 294.59 76.2749 293.837 77.1579 293.113C77.4628 292.851 77.779 292.596 78.0864 292.343C78.8188 291.739 79.5513 291.135 80.2926 290.528C80.9137 290.011 81.5437 289.491 82.1673 288.983C83.0806 288.228 84.1093 287.438 85.2504 287.612C85.7719 287.743 86.2602 287.998 86.6799 288.358C87.0996 288.719 87.4403 289.176 87.6774 289.696C88.1842 290.776 88.5515 291.927 88.7691 293.115C89.3877 295.838 89.9974 298.564 90.616 301.287L91.5336 302.354C90.224 303.757 88.6984 304.901 87.0256 305.733C86.3215 306.043 85.5668 306.196 84.807 306.181C84.0472 306.166 83.298 305.985 82.6045 305.648C82.3017 305.489 82.0153 305.296 81.7501 305.072C80.5932 304.08 79.881 302.521 78.863 301.329C78.6483 301.084 78.42 300.852 78.1794 300.637C77.4766 299.993 76.6513 299.525 75.7625 299.266C74.8737 299.008 73.9433 298.965 73.0376 299.142C71.9879 299.397 71.0249 299.965 70.2569 300.783V300.783Z" fill="#CCCCCC"/>
<path id="Vector_18" d="M70.2569 300.783C71.4939 298.811 72.9412 297.005 74.5688 295.402C75.3996 294.59 76.2749 293.837 77.1579 293.113C77.4628 292.851 77.779 292.596 78.0864 292.343C78.8188 291.739 79.5513 291.135 80.2926 290.528C80.5327 290.964 80.7516 291.414 80.9485 291.875C82.7926 296.173 82.9269 300.974 82.6045 305.648C82.3017 305.489 82.0153 305.296 81.7501 305.072C80.5932 304.08 79.881 302.521 78.863 301.329C78.6483 301.084 78.42 300.852 78.1794 300.637C77.4766 299.993 76.6513 299.525 75.7625 299.266C74.8737 299.008 73.9433 298.965 73.0376 299.142C71.9879 299.397 71.0249 299.965 70.2569 300.783V300.783Z" fill="#6C63FF"/>
<path id="Vector_19" d="M524.571 115.266C522.446 110.309 525.818 104.776 527.021 99.4401C529.266 89.4833 522.94 78.7034 514.364 75.2533C505.789 71.8033 495.935 74.6869 488.568 80.724C481.347 86.6422 476.27 89.4303 471.296 97.7924C469.628 100.596 467.862 109.303 467.546 112.661C467.231 116.019 468.832 119.868 471.753 120.604C470.573 123.32 472.617 126.45 475.252 125.898C480.842 124.727 491.109 127.946 491.109 127.946C500.681 128.541 510.254 129.135 519.826 129.729C522.279 129.882 524.824 130.02 527.028 128.55C527.637 128.163 528.162 127.637 528.567 127.009C528.972 126.381 529.246 125.665 529.372 124.911C529.932 120.978 526.035 118.684 524.571 115.266Z" fill="#2F2E41"/>
<path id="Vector_20" d="M518.697 293.415C501.69 310.8 483.629 309.752 464.62 291.855C454.133 291.552 445.796 283.326 446.036 273.516C446.277 263.707 455.005 255.972 465.493 256.275L519.57 257.835C530.058 258.137 538.394 266.364 538.154 276.174C537.913 285.983 529.185 293.718 518.697 293.415Z" fill="#2F2E41"/>
<path id="Vector_21" d="M531.799 158.634L529.704 173.757L526.383 197.717L525.82 206.595L521.686 271.66C521.686 271.66 489.741 268.818 481.252 271.66C472.763 274.513 452.131 262.773 452.131 262.773C459.541 254.866 457.538 225.811 457.538 225.811L457.455 153.84L476.196 147.004L482.369 133.823H504.514L510.05 147.835L520.099 152.819L524.676 155.101L531.799 158.634Z" fill="#3F3D56"/>
<path id="Vector_22" d="M443.568 396.307L432.844 398.207L420.983 354.246L436.81 351.442L443.568 396.307Z" fill="#FFB6B6"/>
<path id="Vector_23" d="M439.307 304.641C459.301 309.973 474.064 303.968 486.224 304.746C493.136 292.095 515.201 276.026 503.162 269.262C496.458 265.495 428.303 256.811 419.356 266.833C396.35 292.604 424.914 373.99 424.914 373.99L440.802 373.768L445.878 365.909L441.789 357.344L445.657 350.342L441.231 343.129L439.307 304.641Z" fill="#2F2E41"/>
<path id="Vector_24" d="M542.392 396.307L553.115 398.207L564.977 354.246L549.15 351.442L542.392 396.307Z" fill="#FFB6B6"/>
<path id="Vector_25" d="M546.653 282.622C535.588 300.223 517.938 303.101 499.736 304.746C492.824 292.095 470.76 276.026 482.798 269.262C489.503 265.495 557.657 234.793 566.604 244.815C589.611 270.585 561.046 373.99 561.046 373.99L545.158 373.768L540.083 365.909L544.171 357.344L540.303 350.342L544.73 343.129L546.653 282.622Z" fill="#2F2E41"/>
<path id="Vector_26" d="M543.331 379.974L559.233 383.507L557.437 390.78L569.566 406.249C570.165 407.013 570.523 407.964 570.588 408.965C570.654 409.965 570.422 410.962 569.928 411.81C569.434 412.657 568.703 413.311 567.842 413.677C566.981 414.042 566.034 414.099 565.141 413.839L546.508 408.428L545.072 400.3L542.042 407.131L535.016 405.09L543.331 379.974Z" fill="#2F2E41"/>
<path id="Vector_27" d="M450.944 405.09L443.918 407.131L440.888 400.3L439.453 408.428L420.819 413.839C419.926 414.099 418.98 414.042 418.118 413.677C417.257 413.311 416.526 412.657 416.032 411.81C415.538 410.962 415.307 409.965 415.372 408.965C415.437 407.964 415.795 407.013 416.394 406.249L428.523 390.78L426.727 383.507L442.629 379.974L450.944 405.09Z" fill="#2F2E41"/>
<path id="Vector_28" d="M494.356 127.063C504.697 127.063 513.08 117.97 513.08 106.754C513.08 95.537 504.697 86.4442 494.356 86.4442C484.015 86.4442 475.632 95.537 475.632 106.754C475.632 117.97 484.015 127.063 494.356 127.063Z" fill="#FFB6B6"/>
<path id="Vector_29" d="M483.659 100.383C478.712 100.392 473.884 98.7397 469.837 95.6535L469.702 95.5509C469.702 90.3116 471.621 85.2869 475.037 81.5822C478.452 77.8775 483.084 75.7962 487.915 75.7962H495.349C497.725 75.7991 500.077 76.3103 502.271 77.3005C504.464 78.2907 506.456 79.7404 508.133 81.5667C509.809 83.393 511.137 85.56 512.04 87.9436C512.943 90.3273 513.404 92.8808 513.397 95.4579C513.381 96.6343 512.943 97.7576 512.175 98.5888C511.408 99.4199 510.371 99.8932 509.287 99.9079L484.086 100.379C483.943 100.382 483.8 100.383 483.659 100.383Z" fill="#2F2E41"/>
<path id="Vector_30" d="M527.067 326.897H470.688C469.177 326.895 467.729 326.243 466.66 325.084C465.592 323.925 464.991 322.354 464.989 320.715V264.763C464.991 263.124 465.592 261.553 466.66 260.394C467.729 259.236 469.177 258.584 470.688 258.582H527.067C528.578 258.584 530.026 259.236 531.095 260.394C532.163 261.553 532.764 263.124 532.766 264.763V320.715C532.764 322.354 532.163 323.925 531.095 325.084C530.026 326.243 528.578 326.895 527.067 326.897V326.897Z" fill="#E6E6E6"/>
<path id="Vector_31" d="M523.104 321.745H474.651C473.31 321.743 472.023 321.164 471.075 320.135C470.126 319.106 469.593 317.711 469.591 316.256V269.222C469.593 267.767 470.126 266.372 471.075 265.343C472.023 264.314 473.31 263.735 474.651 263.734H523.104C524.446 263.735 525.732 264.314 526.68 265.343C527.629 266.372 528.163 267.767 528.164 269.222V316.256C528.163 317.711 527.629 319.106 526.68 320.135C525.732 321.164 524.446 321.743 523.104 321.745V321.745Z" fill="white"/>
<path id="Vector_32" d="M518.27 277.427H479.485C479.149 277.427 478.827 277.283 478.59 277.025C478.353 276.768 478.22 276.419 478.22 276.055C478.22 275.691 478.353 275.342 478.59 275.085C478.827 274.828 479.149 274.683 479.485 274.683H518.27C518.606 274.683 518.928 274.828 519.165 275.085C519.402 275.342 519.535 275.691 519.535 276.055C519.535 276.419 519.402 276.768 519.165 277.025C518.928 277.283 518.606 277.427 518.27 277.427V277.427Z" fill="#6C63FF"/>
<path id="Vector_33" d="M518.27 282.849H479.485C479.149 282.849 478.827 282.704 478.59 282.447C478.353 282.189 478.22 281.84 478.22 281.477C478.22 281.113 478.353 280.764 478.59 280.506C478.827 280.249 479.149 280.104 479.485 280.104H518.27C518.606 280.104 518.928 280.249 519.165 280.506C519.402 280.764 519.535 281.113 519.535 281.477C519.535 281.84 519.402 282.189 519.165 282.447C518.928 282.704 518.606 282.849 518.27 282.849Z" fill="#6C63FF"/>
<path id="Vector_34" d="M496.297 288.27H479.485C479.149 288.27 478.827 288.126 478.59 287.868C478.353 287.611 478.22 287.262 478.22 286.898C478.22 286.534 478.353 286.185 478.59 285.928C478.827 285.671 479.149 285.526 479.485 285.526H496.297C496.633 285.526 496.955 285.671 497.192 285.928C497.429 286.185 497.562 286.534 497.562 286.898C497.562 287.262 497.429 287.611 497.192 287.868C496.955 288.126 496.633 288.27 496.297 288.27Z" fill="#6C63FF"/>
<path id="Vector_35" d="M518.27 299.625H479.485C479.149 299.625 478.827 299.481 478.59 299.223C478.353 298.966 478.22 298.617 478.22 298.253C478.22 297.889 478.353 297.54 478.59 297.283C478.827 297.026 479.149 296.881 479.485 296.881H518.27C518.606 296.881 518.928 297.026 519.165 297.283C519.402 297.54 519.535 297.889 519.535 298.253C519.535 298.617 519.402 298.966 519.165 299.223C518.928 299.481 518.606 299.625 518.27 299.625V299.625Z" fill="#E4E4E4"/>
<path id="Vector_36" d="M518.27 305.047H479.485C479.149 305.047 478.827 304.902 478.59 304.645C478.353 304.388 478.22 304.039 478.22 303.675C478.22 303.311 478.353 302.962 478.59 302.704C478.827 302.447 479.149 302.303 479.485 302.303H518.27C518.606 302.303 518.928 302.447 519.165 302.704C519.402 302.962 519.535 303.311 519.535 303.675C519.535 304.039 519.402 304.388 519.165 304.645C518.928 304.902 518.606 305.047 518.27 305.047Z" fill="#E4E4E4"/>
<path id="Vector_37" d="M496.297 310.468H479.485C479.149 310.468 478.827 310.324 478.59 310.066C478.353 309.809 478.22 309.46 478.22 309.096C478.22 308.732 478.353 308.383 478.59 308.126C478.827 307.869 479.149 307.724 479.485 307.724H496.297C496.633 307.724 496.955 307.869 497.192 308.126C497.429 308.383 497.562 308.732 497.562 309.096C497.562 309.46 497.429 309.809 497.192 310.066C496.955 310.324 496.633 310.468 496.297 310.468V310.468Z" fill="#E4E4E4"/>
<path id="Vector_38" d="M535.887 199.879L518.926 200.03L517.68 232.773L503.9 251.073C502.223 251.379 500.658 252.182 499.375 253.392C498.093 254.603 497.145 256.175 496.634 257.933C496.124 259.692 496.072 261.57 496.483 263.359C496.895 265.148 497.754 266.779 498.967 268.071C500.179 269.364 501.698 270.267 503.354 270.683C505.01 271.098 506.74 271.009 508.352 270.424C509.965 269.84 511.397 268.784 512.491 267.372C513.584 265.961 514.297 264.249 514.55 262.425L533.534 233.881L535.887 199.879Z" fill="#FFB6B6"/>
<path id="Vector_39" d="M449.039 201.365L431.653 192.55L412.668 218.044L391.55 223.837C390.035 223 388.337 222.633 386.642 222.777C384.947 222.921 383.322 223.57 381.946 224.653C380.57 225.736 379.497 227.21 378.845 228.913C378.193 230.616 377.988 232.481 378.252 234.303C378.516 236.124 379.239 237.831 380.341 239.235C381.443 240.639 382.882 241.685 384.498 242.257C386.114 242.83 387.844 242.907 389.498 242.48C391.152 242.053 392.664 241.138 393.869 239.837L424.793 229.178L449.039 201.365Z" fill="#FFB6B6"/>
<path id="Vector_40" d="M503.725 125.496L510.208 116.724C510.907 115.955 511.363 114.964 511.508 113.895C511.542 112.823 510.611 111.675 509.671 112.011C508.799 112.323 503.775 98.6692 502.857 98.672C501.906 98.6749 501.595 97.2989 501.583 96.2668C501.537 92.356 504.468 96.5555 505.437 92.7881C506.406 89.0208 510.183 92.2599 513.438 90.5774C516.693 88.8949 521.116 89.6591 523.128 92.9046C524.62 95.3109 524.565 98.4375 524.367 101.329C523.907 108.04 522.976 114.704 521.582 121.261C521.24 122.872 520.73 124.672 519.361 125.399C518.608 125.723 517.796 125.854 516.989 125.784L507.008 125.73" fill="#2F2E41"/>
<path id="Vector_41" d="M519.278 87.7839C524.374 87.7839 528.505 83.3029 528.505 77.7754C528.505 72.2478 524.374 67.7668 519.278 67.7668C514.182 67.7668 510.05 72.2478 510.05 77.7754C510.05 83.3029 514.182 87.7839 519.278 87.7839Z" fill="#2F2E41"/>
<path id="Vector_42" d="M540.03 200.069C539.033 201.951 536.911 202.702 534.973 203.282C532.353 204.073 531.587 204.873 528.966 205.664C527.924 205.984 526.872 206.305 525.82 206.595C524.093 207.099 522.34 207.49 520.57 207.766C519.084 207.996 517.331 207.996 516.362 206.745C515.719 205.671 515.46 204.379 515.633 203.112C516.011 187.739 516.393 172.366 516.777 156.993L517.58 157.293C517.941 157.034 518.317 156.8 518.706 156.592C520.553 155.572 522.603 155.06 524.676 155.101C525.862 155.112 527.04 155.311 528.173 155.692C529.931 156.297 531.547 157.311 532.908 158.663C534.269 160.014 535.342 161.671 536.053 163.518C536.973 166.307 537.411 169.255 537.345 172.216C537.354 172.666 537.354 173.116 537.363 173.567C537.418 177.41 535.619 181.253 535.674 185.097C535.632 186.179 535.77 187.26 536.08 188.289C536.45 189.31 537.169 190.161 537.446 191.222C537.723 192.273 537.271 193.714 536.265 193.794C536.976 193.712 537.693 193.844 538.338 194.177C538.984 194.51 539.532 195.03 539.921 195.68C540.311 196.329 540.527 197.083 540.547 197.858C540.566 198.633 540.387 199.398 540.03 200.069L540.03 200.069Z" fill="#3F3D56"/>
<path id="Vector_43" d="M457.533 153.927C459.378 154.047 461.176 154.608 462.798 155.569C464.42 156.53 465.827 157.868 466.918 159.487C468.009 161.105 468.757 162.965 469.108 164.934C469.46 166.902 469.407 168.93 468.953 170.874C468.181 174.173 466.313 177.022 464.482 179.786L458.281 189.148C457.651 189.987 457.167 190.943 456.852 191.969C456.591 193.031 456.694 194.182 456.337 195.21C455.979 196.238 454.828 197.1 453.974 196.511C454.589 196.904 455.093 197.474 455.428 198.158C455.764 198.842 455.919 199.614 455.876 200.387C455.833 201.161 455.593 201.906 455.184 202.542C454.775 203.177 454.212 203.677 453.557 203.987C451.717 204.858 449.603 204.081 447.728 203.302L440.112 200.141C437.403 199.093 434.764 197.845 432.212 196.406C430.894 195.621 429.487 194.491 429.393 192.863C429.32 191.596 430.308 190.622 430.803 189.472C437.006 175.068 446.127 163.607 457.455 153.84L457.533 153.927Z" fill="#3F3D56"/>
<path id="Vector_44" d="M472.175 342.552C479.406 342.552 485.268 336.194 485.268 328.351C485.268 320.508 479.406 314.15 472.175 314.15C464.945 314.15 459.083 320.508 459.083 328.351C459.083 336.194 464.945 342.552 472.175 342.552Z" fill="white"/>
<path id="Vector_45" d="M472.175 342.725C469.554 342.725 466.992 341.882 464.813 340.303C462.633 338.723 460.935 336.478 459.932 333.852C458.929 331.225 458.666 328.335 459.178 325.546C459.689 322.758 460.951 320.197 462.805 318.186C464.658 316.176 467.019 314.807 469.59 314.252C472.161 313.698 474.825 313.982 477.247 315.07C479.668 316.158 481.738 318.001 483.194 320.365C484.65 322.728 485.428 325.508 485.428 328.351C485.424 332.162 484.026 335.815 481.542 338.51C479.057 341.205 475.689 342.721 472.175 342.725Z" fill="#6C63FF"/>
<path id="Vector_46" d="M471.195 334.026C471.167 334.026 471.139 334.025 471.111 334.024C470.865 334.011 470.624 333.94 470.405 333.817C470.186 333.693 469.994 333.52 469.842 333.308L467.654 330.257C467.516 330.065 467.414 329.845 467.355 329.609C467.295 329.374 467.278 329.128 467.306 328.886C467.334 328.644 467.406 328.41 467.517 328.198C467.628 327.986 467.777 327.8 467.954 327.65L468.033 327.583C468.211 327.433 468.414 327.323 468.631 327.258C468.848 327.193 469.074 327.176 469.298 327.206C469.521 327.236 469.737 327.314 469.932 327.434C470.128 327.555 470.3 327.716 470.438 327.909C470.548 328.063 470.688 328.189 470.848 328.279C471.007 328.369 471.183 328.421 471.363 328.43C471.542 328.44 471.722 328.407 471.889 328.334C472.055 328.262 472.206 328.151 472.33 328.009L476.772 322.922C477.085 322.565 477.516 322.357 477.97 322.343C478.424 322.33 478.864 322.512 479.194 322.851L479.267 322.926C479.43 323.094 479.562 323.295 479.653 323.518C479.745 323.74 479.795 323.981 479.801 324.225C479.807 324.469 479.769 324.711 479.689 324.939C479.608 325.167 479.487 325.376 479.332 325.553L472.438 333.446C472.278 333.629 472.086 333.775 471.872 333.875C471.658 333.975 471.428 334.026 471.195 334.026V334.026Z" fill="white"/>
<path id="Vector_47" d="M378.824 249.951L346.221 206.651C345.107 205.168 344.581 203.267 344.758 201.364C344.935 199.461 345.801 197.711 347.166 196.5L355.866 188.793C357.233 187.585 358.986 187.014 360.74 187.206C362.495 187.398 364.108 188.337 365.225 189.817L397.827 233.117C398.941 234.6 399.467 236.501 399.29 238.404C399.113 240.307 398.247 242.057 396.883 243.268L388.182 250.975C386.815 252.184 385.062 252.754 383.308 252.562C381.553 252.37 379.941 251.431 378.824 249.951V249.951Z" fill="#3F3D56"/>
<path id="phone" d="M396.196 233.948L387.467 222.358L382.918 216.323L363.587 190.651C363.29 190.256 362.924 189.928 362.51 189.686C362.095 189.444 361.641 189.294 361.173 189.242C360.705 189.191 360.233 189.241 359.782 189.388C359.332 189.535 358.913 189.778 358.549 190.101L349.848 197.807C349.483 198.13 349.181 198.527 348.958 198.976C348.735 199.425 348.596 199.918 348.549 200.426C348.502 200.933 348.548 201.446 348.683 201.934C348.819 202.423 349.042 202.877 349.34 203.272L349.359 203.302L365.682 224.981L381.94 246.579C382.543 247.376 383.413 247.881 384.359 247.984C385.305 248.087 386.25 247.78 386.987 247.129L395.679 239.423C396.415 238.769 396.882 237.827 396.979 236.801C397.076 235.775 396.794 234.75 396.196 233.948V233.948Z" fill="#6C63FF"/>
<path id="Vector_48" d="M370.72 213.891C370.722 216.035 370.268 218.151 369.394 220.074C368.521 221.997 367.25 223.676 365.682 224.981L349.359 203.302C351.229 201.543 353.526 200.404 355.977 200.022C358.427 199.64 360.927 200.03 363.179 201.146C365.43 202.262 367.338 204.057 368.675 206.317C370.012 208.577 370.722 211.206 370.72 213.891V213.891Z" fill="#3F3D56"/>
<path id="Vector_49" d="M373.13 206.687C373.572 208.41 372.43 210.476 369.915 212.506C369.412 212.913 368.697 213.106 368.278 213.692C367.396 215.02 366.195 216.059 364.804 216.695C363.414 217.332 361.889 217.54 360.397 217.298C360.221 217.177 360.046 217.051 359.873 216.921C359.905 216.913 359.937 216.903 359.969 216.893C362.948 216.034 365.798 214.718 368.433 212.983C368.856 212.693 369.511 212.583 369.632 212.093C370.599 208.156 372.77 207.872 372.673 206.825C372.53 205.295 370.43 204.319 367.562 204.014C367.278 203.984 366.988 203.961 366.691 203.945C366.573 203.764 366.452 203.587 366.326 203.414C366.766 203.429 367.194 203.458 367.608 203.501C370.728 203.833 372.689 204.964 373.13 206.687Z" fill="white"/>
<path id="Vector_50" d="M359.586 209.256C361.347 209.256 362.775 207.707 362.775 205.797C362.775 203.887 361.347 202.338 359.586 202.338C357.825 202.338 356.397 203.887 356.397 205.797C356.397 207.707 357.825 209.256 359.586 209.256Z" fill="white"/>
<path id="Vector_51" d="M376.359 228.67C376.822 228.67 377.197 228.264 377.197 227.762C377.197 227.26 376.822 226.853 376.359 226.853C375.897 226.853 375.522 227.26 375.522 227.762C375.522 228.264 375.897 228.67 376.359 228.67Z" fill="white"/>
<path id="Vector_52" d="M390.2 232.674C390.663 232.674 391.038 232.267 391.038 231.765C391.038 231.263 390.663 230.857 390.2 230.857C389.737 230.857 389.362 231.263 389.362 231.765C389.362 232.267 389.737 232.674 390.2 232.674Z" fill="white"/>
<path id="Vector_53" d="M359.75 195.642C360.213 195.642 360.588 195.235 360.588 194.734C360.588 194.232 360.213 193.825 359.75 193.825C359.288 193.825 358.913 194.232 358.913 194.734C358.913 195.235 359.288 195.642 359.75 195.642Z" fill="white"/>
<path id="Vector_54" d="M383.741 238.679C384.204 238.679 384.579 238.272 384.579 237.77C384.579 237.268 384.204 236.862 383.741 236.862C383.278 236.862 382.903 237.268 382.903 237.77C382.903 238.272 383.278 238.679 383.741 238.679Z" fill="white"/>
<path id="Vector_55" d="M363.597 209.903C363.779 209.903 363.925 209.744 363.925 209.547C363.925 209.351 363.779 209.191 363.597 209.191C363.416 209.191 363.27 209.351 363.27 209.547C363.27 209.744 363.416 209.903 363.597 209.903Z" fill="#F0F0F0"/>
<path id="Vector_56" d="M369.134 216.909C369.315 216.909 369.462 216.75 369.462 216.553C369.462 216.357 369.315 216.197 369.134 216.197C368.953 216.197 368.806 216.357 368.806 216.553C368.806 216.75 368.953 216.909 369.134 216.909Z" fill="#F0F0F0"/>
<path id="Vector_57" d="M352.525 204.899C352.706 204.899 352.853 204.739 352.853 204.543C352.853 204.346 352.706 204.187 352.525 204.187C352.344 204.187 352.197 204.346 352.197 204.543C352.197 204.739 352.344 204.899 352.525 204.899Z" fill="#F0F0F0"/>
<path id="Vector_58" d="M387.467 222.358C387.127 222.833 386.693 223.218 386.197 223.486C385.701 223.753 385.156 223.896 384.602 223.903C384.048 223.911 383.5 223.783 382.998 223.529C382.496 223.275 382.053 222.901 381.702 222.436C381.351 221.971 381.102 221.426 380.972 220.842C380.842 220.258 380.836 219.649 380.953 219.062C381.069 218.475 381.307 217.923 381.647 217.449C381.987 216.975 382.422 216.59 382.918 216.323L387.467 222.358Z" fill="#FF6584"/>
</g>
<defs>
<linearGradient id="paint0_linear_1_3" x1="-23.5" y1="30" x2="302.5" y2="414" gradientUnits="userSpaceOnUse">
<stop stop-color="#00F2F2"/>
<stop offset="0.354167" stop-color="#39F5F5" stop-opacity="0.776042"/>
<stop offset="1" stop-color="white" stop-opacity="0"/>
</linearGradient>
<clipPath id="clip0_1_3">
<rect width="605" height="414" fill="white"/>
</clipPath>
</defs>
</svg>
